<svg xmlns="http://www.w3.org/2000/svg" viewBox="0 0 400 250" width="400" height="250">
    <defs>
        <linearGradient id="blog1Bg" x1="0%" y1="0%" x2="100%" y2="100%">
            <stop offset="0%" style="stop-color:#1a3a63;stop-opacity:1" />
            <stop offset="100%" style="stop-color:#1a6fc4;stop-opacity:1" />
        </linearGradient>
    </defs>
    <rect width="400" height="250" fill="url(#blog1Bg)" rx="8"/>
    <!-- Medical billing error illustration -->
    <rect x="80" y="50" width="100" height="130" rx="8" fill="rgba(255,255,255,0.12)"/>
    <line x1="95" y1="75" x2="165" y2="75" stroke="rgba(255,255,255,0.2)" stroke-width="3"/>
    <line x1="95" y1="95" x2="155" y2="95" stroke="rgba(255,255,255,0.15)" stroke-width="3"/>
    <line x1="95" y1="115" x2="160" y2="115" stroke="rgba(255,255,255,0.15)" stroke-width="3"/>
    <line x1="95" y1="135" x2="145" y2="135" stroke="rgba(255,255,255,0.15)" stroke-width="3"/>
    <!-- X mark -->
    <circle cx="150" cy="150" r="20" fill="rgba(220,53,69,0.4)"/>
    <line x1="140" y1="140" x2="160" y2="160" stroke="rgba(255,255,255,0.6)" stroke-width="3" stroke-linecap="round"/>
    <line x1="160" y1="140" x2="140" y2="160" stroke="rgba(255,255,255,0.6)" stroke-width="3" stroke-linecap="round"/>
    <!-- Check mark doc -->
    <rect x="220" y="50" width="100" height="130" rx="8" fill="rgba(255,255,255,0.12)"/>
    <line x1="235" y1="75" x2="305" y2="75" stroke="rgba(255,255,255,0.2)" stroke-width="3"/>
    <line x1="235" y1="95" x2="295" y2="95" stroke="rgba(255,255,255,0.15)" stroke-width="3"/>
    <line x1="235" y1="115" x2="300" y2="115" stroke="rgba(255,255,255,0.15)" stroke-width="3"/>
    <circle cx="290" cy="150" r="20" fill="rgba(40,167,69,0.4)"/>
    <polyline points="278,150 286,158 302,142" fill="none" stroke="rgba(255,255,255,0.6)" stroke-width="3" stroke-linecap="round" stroke-linejoin="round"/>
    <text x="200" y="220" text-anchor="middle" fill="rgba(255,255,255,0.7)" font-family="Poppins, sans-serif" font-size="13" font-weight="600">Common Billing Mistakes</text>
</svg>
